<?xml version="1.0" encoding="utf-8"?>
<!-- Generator: Adobe Illustrator 23.0.0, SVG Export Plug-In . SVG Version: 6.00 Build 0)  -->
<svg version="1.1" id="图层_1" xmlns="http://www.w3.org/2000/svg" xmlns:xlink="http://www.w3.org/1999/xlink" x="0px" y="0px"
	 viewBox="0 0 128 128" style="enable-background:new 0 0 128 128;" xml:space="preserve">
<style type="text/css">
	.st0{fill:#666666;}
</style>
<path class="st0" d="M72.6,64.3L125.7,11c2.5-2.5,2.5-6.2,0-8.7s-6.2-2.5-8.6,0L64,55.6L10.9,1.9c-2.5-2.5-6.2-2.5-8.6,0
	s-2.5,6.2,0,8.7l53.1,53.8L1.9,117.7c-2.5,2.5-2.5,6.2,0,8.7c1.2,1.2,2.9,1.7,4.5,1.7s3.3-0.4,4.5-1.7L64,73l53.1,53.4
	c1.2,1.2,2.9,1.7,4.5,1.7c1.6,0,3.3-0.4,4.5-1.7c2.5-2.5,2.5-6.2,0-8.7L72.6,64.3z"/>
</svg>
