<?xml version="1.0" encoding="utf-8"?>
<!-- Generator: Adobe Illustrator 23.0.0, SVG Export Plug-In . SVG Version: 6.00 Build 0)  -->
<svg version="1.1" id="图层_1" xmlns="http://www.w3.org/2000/svg" xmlns:xlink="http://www.w3.org/1999/xlink" x="0px" y="0px"
	 viewBox="0 0 128 128" style="enable-background:new 0 0 128 128;" xml:space="preserve">
<style type="text/css">
	.st0{fill:#7F7F7F;}
</style>
<path class="st0" d="M124.6,124.6c-4.5,4.5-11.9,4.5-16.5,0L3.5,20C-1,15.4-1,8,3.5,3.5c4.5-4.6,11.9-4.6,16.5,0l104.5,104.6
	C129.1,112.6,129.1,120,124.6,124.6L124.6,124.6z M124.5,19.9L19.9,124.5c-4.6,4.6-12,4.6-16.5,0c-4.6-4.5-4.6-11.9,0-16.5L108,3.4
	c4.6-4.6,12-4.6,16.5,0C129,8,129,15.4,124.5,19.9L124.5,19.9z"/>
</svg>
