<?xml version="1.0" encoding="utf-8"?>
<!-- Generator: Adobe Illustrator 23.0.0, SVG Export Plug-In . SVG Version: 6.00 Build 0)  -->
<svg version="1.1" id="图层_1" xmlns="http://www.w3.org/2000/svg" xmlns:xlink="http://www.w3.org/1999/xlink" x="0px" y="0px"
	 viewBox="0 0 128 128" style="enable-background:new 0 0 128 128;" xml:space="preserve">
<style type="text/css">
	.st0{fill:#FFFFFF;}
</style>
<path class="st0" d="M9.2,88.8C9,89,8.9,89.1,8.9,89.3l-8.7,31.9c-0.5,1.9,0,3.9,1.4,5.3c1,1,2.4,1.6,3.8,1.6c0.5,0,1-0.1,1.4-0.2
	l31.6-8.6c0.1,0,0.1,0,0.1,0c0.4,0,0.7-0.1,1-0.4l84.6-84.6c2.5-2.5,3.9-5.9,3.9-9.7c0-4.2-1.8-8.5-4.9-11.6l-8-8
	C112,1.8,107.7,0,103.5,0c-3.7,0-7.2,1.4-9.7,3.9L9.3,88.5C9.2,88.6,9.2,88.7,9.2,88.8 M115.8,25.9l-8.4,8.4L93.8,20.5l8.3-8.3
	c1.3-1.3,3.8-1.1,5.3,0.4l8,8c0.8,0.8,1.3,1.9,1.3,3C116.7,24.5,116.4,25.3,115.8,25.9 M24.2,90.2l61-61.1l13.6,13.9l-60.9,61
	L24.2,90.2z M13.1,114.9l4.4-16.2l11.8,11.8L13.1,114.9z"/>
</svg>
