<svg width="14" height="13" viewBox="0 0 14 13" xmlns="http://www.w3.org/2000/svg">
    <path d="M10.4405 4.22469C10.4405 4.93724 9.86286 5.51487 9.15031 5.51487C8.43776 5.51487 7.86012 4.93724 7.86012 4.22469C7.86012 3.51214 8.43776 2.9345 9.15031 2.9345C9.86286 2.9345 10.4405 3.51214 10.4405 4.22469ZM9.58037 4.22469C9.58037 3.98717 9.38783 3.79462 9.15031 3.79462C8.91279 3.79462 8.72025 3.98717 8.72025 4.22469C8.72025 4.4622 8.91279 4.65475 9.15031 4.65475C9.38783 4.65475 9.58037 4.4622 9.58037 4.22469ZM0.979126 2.9345C0.979126 1.5094 2.1344 0.354126 3.5595 0.354126H10.4405C11.8656 0.354126 13.0209 1.5094 13.0209 2.9345V9.8155C13.0209 11.2406 11.8656 12.3959 10.4405 12.3959H3.5595C2.1344 12.3959 0.979126 11.2406 0.979126 9.8155V2.9345ZM3.5595 1.21425C2.60943 1.21425 1.83925 1.98443 1.83925 2.9345V9.8155C1.83925 10.136 1.9269 10.436 2.07955 10.6929L6.09573 6.7466C6.59769 6.25337 7.4023 6.25337 7.90426 6.7466L11.9204 10.6929C12.0731 10.436 12.1607 10.136 12.1607 9.8155V2.9345C12.1607 1.98443 11.3906 1.21425 10.4405 1.21425H3.5595ZM3.5595 11.5357H10.4405C10.758 11.5357 11.0554 11.4497 11.3107 11.2997L7.30142 7.36011C7.1341 7.1957 6.86589 7.1957 6.69857 7.36011L2.68926 11.2997C2.94456 11.4497 3.24198 11.5357 3.5595 11.5357Z" fill="white" />
</svg>
