<?xml version="1.0" encoding="utf-8"?>
<!-- Generator: Adobe Illustrator 23.0.0, SVG Export Plug-In . SVG Version: 6.00 Build 0)  -->
<svg version="1.1" id="图层_1" xmlns="http://www.w3.org/2000/svg" xmlns:xlink="http://www.w3.org/1999/xlink" x="0px" y="0px"
	 viewBox="0 0 128 128" style="enable-background:new 0 0 128 128;" xml:space="preserve">
<style type="text/css">
	.st0{fill:#FFFFFF;}
</style>
<path class="st0" d="M32.6,54.1c2,2.2,2.1,5.7,0.3,8l-0.3,0.4c-2,2.2-5.1,2.3-7.2,0.4L25,62.6L1.6,36.4c-2-2.2-2.1-5.7-0.3-8
	l0.3-0.4L25,1.7c2.1-2.3,5.5-2.3,7.6,0c1.9,2.2,2.1,5.6,0.3,8l-0.3,0.4l-14.3,16l64.1,0c25.2,0,45.6,22.8,45.6,50.9
	c0,27.7-19.8,50.3-44.5,50.9l-1,0H18.8c-3,0-5.4-2.7-5.3-6c0-3.1,2.1-5.7,4.9-6l0.5,0h63.7c19.2,0,34.8-17.4,34.8-38.9
	c0-21.1-15.1-38.4-33.9-38.9l-0.9,0l-64.1,0C18.3,38.2,32.6,54.1,32.6,54.1z"/>
</svg>
