<?xml version="1.0" encoding="utf-8"?>
<!-- Generator: Adobe Illustrator 23.0.0, SVG Export Plug-In . SVG Version: 6.00 Build 0)  -->
<svg version="1.1" id="图层_1" xmlns="http://www.w3.org/2000/svg" xmlns:xlink="http://www.w3.org/1999/xlink" x="0px" y="0px"
	 viewBox="0 0 105.9 105.9" style="enable-background:new 0 0 105.9 105.9;" xml:space="preserve">
<style type="text/css">
	.st0{fill:#2D62AE;}
	.st1{fill:#BACEEA;}
</style>
<path class="st0" d="M83,68.2V13.5c0-3.8-3.1-6.8-6.8-6.8H42c-3.8,0-6.8,3.1-6.8,6.8l0,54.7l23.9-10.3L83,68.2z"/>
<path class="st1" d="M89.3,16.8v12.7c2.8,1.5,4.7,4.5,4.7,7.9v47.5c0,5-4.1,9.1-9.1,9.1H21.1c-5,0-9-4.1-9-9.1V37.4
	c0-5,4.1-9.1,9-9.1H29l0-12h-7.9C9.5,16.3,0,25.8,0,37.4v47.5C0,96.5,9.5,106,21.1,106h63.8c11.6,0,21.1-9.4,21.1-21.1V37.4
	C105.9,27.3,98.8,18.8,89.3,16.8z"/>
</svg>
